<svg height="512pt" viewBox="0 -32 512.016 512" width="512pt" xmlns="http://www.w3.org/2000/svg">
<path d="m192 213.339844c-58.816406 0-106.667969-47.847656-106.667969-106.664063 0-58.816406 47.851563-106.6679685 106.667969-106.6679685s106.667969 47.8515625 106.667969 106.6679685c0 58.816407-47.851563 106.664063-106.667969 106.664063zm0-181.332032c-41.171875 0-74.667969 33.492188-74.667969 74.667969 0 41.171875 33.496094 74.664063 74.667969 74.664063s74.667969-33.492188 74.667969-74.664063c0-41.175781-33.496094-74.667969-74.667969-74.667969zm0 0"/>
<path d="m368 448.007812h-352c-8.832031 0-16-7.167968-16-16v-74.667968c0-55.871094 45.460938-101.332032 101.332031-101.332032h181.335938c55.871093 0 101.332031 45.460938 101.332031 101.332032v74.667968c0 8.832032-7.167969 16-16 16zm-336-32h320v-58.667968c0-38.226563-31.105469-69.332032-69.332031-69.332032h-181.335938c-38.226562 0-69.332031 31.105469-69.332031 69.332032zm0 0"/>
</svg>